<?xml version="1.0" encoding="UTF-8" standalone="no"?>
<!-- Created with Inkscape (http://www.inkscape.org/) -->

<svg
   width="1920"
   height="1080"
   viewBox="0 0 508 285.75"
   version="1.1"
   id="svg1"
   inkscape:version="1.4.2 (f4327f4, 2025-05-13)"
   sodipodi:docname="og-h.svg"
   inkscape:export-filename="og-h1.png"
   inkscape:export-xdpi="96"
   inkscape:export-ydpi="96"
   xmlns:inkscape="http://www.inkscape.org/namespaces/inkscape"
   xmlns:sodipodi="http://sodipodi.sourceforge.net/DTD/sodipodi-0.dtd"
   xmlns="http://www.w3.org/2000/svg"
   xmlns:svg="http://www.w3.org/2000/svg">
  <sodipodi:namedview
     id="namedview1"
     pagecolor="#1e1e1c"
     bordercolor="#000000"
     borderopacity="0.25"
     inkscape:showpageshadow="2"
     inkscape:pageopacity="0.0"
     inkscape:pagecheckerboard="false"
     inkscape:deskcolor="#d1d1d1"
     inkscape:document-units="mm"
     inkscape:zoom="0.49350161"
     inkscape:cx="1047.6156"
     inkscape:cy="591.69007"
     inkscape:window-width="1920"
     inkscape:window-height="1027"
     inkscape:window-x="-8"
     inkscape:window-y="-8"
     inkscape:window-maximized="1"
     inkscape:current-layer="layer3"
     showgrid="true"
     inkscape:export-bgcolor="#1e1e1cff">
    <inkscape:grid
       id="grid2"
       units="px"
       originx="0"
       originy="0"
       spacingx="50.8"
       spacingy="28.575"
       empcolor="#e5e5e5"
       empopacity="0.11764706"
       color="#ffffff"
       opacity="0.03529412"
       empspacing="1"
       enabled="false"
       visible="true"
       dotted="false" />
  </sodipodi:namedview>
  <defs
     id="defs1">
    <rect
       x="218.56754"
       y="87.696854"
       width="1262.8346"
       height="339.99393"
       id="rect1" />
    <rect
       x="218.56754"
       y="87.696854"
       width="1262.8346"
       height="339.99393"
       id="rect2" />
  </defs>
  <g
     inkscape:groupmode="layer"
     id="layer3"
     inkscape:label="Layer 3"
     style="display:inline;fill:none;fill-opacity:0.5;stroke:#adad9c;stroke-opacity:0.1">
    <g
       id="g17"
       transform="matrix(1.3154999,0,0,0.78151457,-80.137011,31.216106)"
       style="stroke-width:1.30472366;stroke-dasharray:none">
      <path
         id="path1"
         style="font-variation-settings:'wght' 700;display:inline;fill:none;fill-opacity:0.5;stroke:#adad9c;stroke-width:1.30472366;stroke-linejoin:round;stroke-dasharray:none;stroke-opacity:0.1"
         d="m 346.77822,142.875 c 0,33.62575 -41.53823,60.88481 -92.77823,60.88481 -51.23999,0 -92.77822,-27.25907 -92.77822,-60.88481 0,-33.62575 41.53823,-60.884802 92.77822,-60.884805 51.24,-10e-7 92.77823,27.259055 92.77823,60.884805 z"
         sodipodi:nodetypes="sssss" />
      <path
         id="path2"
         style="font-variation-settings:'wght' 700;display:inline;fill:none;fill-opacity:0.5;stroke:#adad9c;stroke-width:1.30472366;stroke-linejoin:round;stroke-dasharray:none;stroke-opacity:0.06"
         d="M 385.39857,142.875 A 131.39858,86.229027 0 0 1 253.99999,229.10403 131.39858,86.229027 0 0 1 122.60142,142.875 131.39858,86.229027 0 0 1 253.99999,56.645971 131.39858,86.229027 0 0 1 385.39857,142.875 Z" />
      <path
         id="path4"
         style="font-variation-settings:'wght' 700;display:inline;fill:none;fill-opacity:0.5;stroke:#adad9c;stroke-width:1.30472366;stroke-linejoin:round;stroke-dasharray:none;stroke-opacity:0.06"
         d="M 422.20401,142.875 A 168.20402,110.38224 0 0 1 253.99999,253.25724 168.20402,110.38224 0 0 1 85.795973,142.875 168.20402,110.38224 0 0 1 253.99999,32.492756 168.20402,110.38224 0 0 1 422.20401,142.875 Z" />
      <path
         id="path7"
         style="font-variation-settings:'wght' 700;display:inline;fill:none;fill-opacity:0.5;stroke:#adad9c;stroke-width:1.30472366;stroke-linejoin:round;stroke-dasharray:none;stroke-opacity:0.04"
         d="M 460.03184,142.875 A 206.03185,135.20638 0 0 1 253.99999,278.08138 206.03185,135.20638 0 0 1 47.968151,142.875 206.03185,135.20638 0 0 1 253.99999,7.6686177 206.03185,135.20638 0 0 1 460.03184,142.875 Z" />
      <path
         id="path9"
         style="font-variation-settings:'wght' 700;display:inline;fill:none;fill-opacity:0.5;stroke:#adad9c;stroke-width:1.30472366;stroke-linejoin:round;stroke-dasharray:none;stroke-opacity:0.02"
         d="M 499.06992,142.875 A 245.06993,160.82473 0 0 1 253.99999,303.69973 245.06993,160.82473 0 0 1 8.9300765,142.875 245.06993,160.82473 0 0 1 253.99999,-17.949734 245.06993,160.82473 0 0 1 499.06992,142.875 Z" />
    </g>
    <g
       id="g16"
       transform="matrix(-0.82087049,0,0,-1.1520061,462.50109,307.46785)"
       style="stroke-width:1.36040361;stroke-dasharray:none">
      <path
         id="path10"
         style="font-variation-settings:'wght' 700;display:inline;fill:none;fill-opacity:0.5;stroke:#adad9c;stroke-width:1.36040361;stroke-linejoin:round;stroke-dasharray:none;stroke-opacity:0.1"
         d="m 346.77822,142.875 c 0,33.62575 -41.53823,60.88481 -92.77823,60.88481 -51.23999,0 -92.77822,-27.25907 -92.77822,-60.88481 0,-33.62575 41.53823,-60.884802 92.77822,-60.884805 51.24,-10e-7 92.77823,27.259055 92.77823,60.884805 z"
         sodipodi:nodetypes="sssss" />
      <path
         id="path13"
         style="font-variation-settings:'wght' 700;display:inline;fill:none;fill-opacity:0.5;stroke:#adad9c;stroke-width:1.36040361;stroke-linejoin:round;stroke-dasharray:none;stroke-opacity:0.08"
         d="M 385.39857,142.875 A 131.39858,86.229027 0 0 1 253.99999,229.10403 131.39858,86.229027 0 0 1 122.60142,142.875 131.39858,86.229027 0 0 1 253.99999,56.645971 131.39858,86.229027 0 0 1 385.39857,142.875 Z" />
      <path
         id="path14"
         style="font-variation-settings:'wght' 700;display:inline;fill:none;fill-opacity:0.5;stroke:#adad9c;stroke-width:1.36040361;stroke-linejoin:round;stroke-dasharray:none;stroke-opacity:0.06"
         d="M 422.20401,142.875 A 168.20402,110.38224 0 0 1 253.99999,253.25724 168.20402,110.38224 0 0 1 85.795973,142.875 168.20402,110.38224 0 0 1 253.99999,32.492756 168.20402,110.38224 0 0 1 422.20401,142.875 Z" />
      <path
         id="path15"
         style="font-variation-settings:'wght' 700;display:inline;fill:none;fill-opacity:0.5;stroke:#adad9c;stroke-width:1.36040361;stroke-linejoin:round;stroke-dasharray:none;stroke-opacity:0.04"
         d="M 460.03184,142.875 A 206.03185,135.20638 0 0 1 253.99999,278.08138 206.03185,135.20638 0 0 1 47.968151,142.875 206.03185,135.20638 0 0 1 253.99999,7.6686177 206.03185,135.20638 0 0 1 460.03184,142.875 Z" />
      <path
         id="path16"
         style="font-variation-settings:'wght' 700;display:inline;fill:none;fill-opacity:0.5;stroke:#adad9c;stroke-width:1.36040361;stroke-linejoin:round;stroke-dasharray:none;stroke-opacity:0.02"
         d="M 499.06992,142.875 A 245.06993,160.82473 0 0 1 253.99999,303.69973 245.06993,160.82473 0 0 1 8.9300765,142.875 245.06993,160.82473 0 0 1 253.99999,-17.949734 245.06993,160.82473 0 0 1 499.06992,142.875 Z" />
    </g>
    <g
       id="g26"
       transform="matrix(1.0788018,0,0,0.64089653,-20.015691,51.306908)"
       style="stroke-width:1.5909909;stroke-dasharray:none">
      <path
         id="path22"
         style="font-variation-settings:'wght' 700;display:inline;fill:none;fill-opacity:0.5;stroke:#adad9c;stroke-width:1.5909909;stroke-linejoin:round;stroke-dasharray:none;stroke-opacity:0.1"
         d="m 344.55078,142.875 c 0,32.81846 -40.54097,59.42308 -90.55079,59.42308 -50.00981,0 -90.55078,-26.60463 -90.55078,-59.42308 0,-32.81846 40.54097,-59.423067 90.55078,-59.42307 50.00982,-10e-7 90.55079,26.60461 90.55079,59.42307 z"
         sodipodi:nodetypes="sssss" />
      <path
         id="path23"
         style="font-variation-settings:'wght' 700;display:inline;fill:none;fill-opacity:0.5;stroke:#adad9c;stroke-width:1.5909909;stroke-linejoin:round;stroke-dasharray:none;stroke-opacity:0.06"
         d="M 389.8657,142.875 A 135.86571,89.160538 0 0 1 253.99999,232.03554 135.86571,89.160538 0 0 1 118.13429,142.875 135.86571,89.160538 0 0 1 253.99999,53.71446 135.86571,89.160538 0 0 1 389.8657,142.875 Z" />
      <path
         id="path24"
         style="font-variation-settings:'wght' 700;display:inline;fill:none;fill-opacity:0.5;stroke:#adad9c;stroke-width:1.5909909;stroke-linejoin:round;stroke-dasharray:none;stroke-opacity:0.06"
         d="M 435.62481,142.875 A 181.62482,119.18951 0 0 1 253.99999,262.06451 181.62482,119.18951 0 0 1 72.375173,142.875 181.62482,119.18951 0 0 1 253.99999,23.685487 181.62482,119.18951 0 0 1 435.62481,142.875 Z" />
      <path
         id="path25"
         style="font-variation-settings:'wght' 700;display:inline;fill:none;fill-opacity:0.5;stroke:#adad9c;stroke-width:1.5909909;stroke-linejoin:round;stroke-dasharray:none;stroke-opacity:0.04"
         d="M 482.42109,142.875 A 228.4211,149.89911 0 0 1 253.99999,292.77411 228.4211,149.89911 0 0 1 25.578901,142.875 228.4211,149.89911 0 0 1 253.99999,-7.0241086 228.4211,149.89911 0 0 1 482.42109,142.875 Z" />
      <path
         id="path26"
         style="font-variation-settings:'wght' 700;display:inline;fill:none;fill-opacity:0.5;stroke:#adad9c;stroke-width:1.5909909;stroke-linejoin:round;stroke-dasharray:none;stroke-opacity:0.02"
         d="M 526.88575,142.875 A 272.88576,179.0786 0 0 1 253.99999,321.9536 272.88576,179.0786 0 0 1 -18.885753,142.875 272.88576,179.0786 0 0 1 253.99999,-36.203599 272.88576,179.0786 0 0 1 526.88575,142.875 Z" />
    </g>
    <g
       id="g31"
       transform="matrix(1.0076513,0,0,1.4392781,-1.9434483,-62.761854)"
       style="stroke-width:1.09851248;stroke-dasharray:none">
      <path
         id="path27"
         style="font-variation-settings:'wght' 700;display:inline;fill:none;fill-opacity:0.5;stroke:#adad9c;stroke-width:1.09851248;stroke-linejoin:round;stroke-dasharray:none;stroke-opacity:0.1"
         d="m 344.55078,142.875 c 0,32.81846 -40.54097,59.42308 -90.55079,59.42308 -50.00981,0 -90.55078,-26.60463 -90.55078,-59.42308 0,-32.81846 40.54097,-59.423067 90.55078,-59.42307 50.00982,-10e-7 90.55079,26.60461 90.55079,59.42307 z"
         sodipodi:nodetypes="sssss" />
      <path
         id="path28"
         style="font-variation-settings:'wght' 700;display:inline;fill:none;fill-opacity:0.5;stroke:#adad9c;stroke-width:1.09851248;stroke-linejoin:round;stroke-dasharray:none;stroke-opacity:0.06"
         d="M 376.73124,142.875 A 122.73125,80.54118 0 0 1 253.99999,223.41618 122.73125,80.54118 0 0 1 131.26875,142.875 122.73125,80.54118 0 0 1 253.99999,62.333818 122.73125,80.54118 0 0 1 376.73124,142.875 Z" />
      <path
         id="path29"
         style="font-variation-settings:'wght' 700;display:inline;fill:none;fill-opacity:0.5;stroke:#adad9c;stroke-width:1.09851248;stroke-linejoin:round;stroke-dasharray:none;stroke-opacity:0.06"
         d="M 406.7015,142.875 A 152.70151,100.20887 0 0 1 253.99999,243.08387 152.70151,100.20887 0 0 1 101.29848,142.875 152.70151,100.20887 0 0 1 253.99999,42.666125 152.70151,100.20887 0 0 1 406.7015,142.875 Z" />
      <path
         id="path30"
         style="font-variation-settings:'wght' 700;display:inline;fill:none;fill-opacity:0.5;stroke:#adad9c;stroke-width:1.09851248;stroke-linejoin:round;stroke-dasharray:none;stroke-opacity:0.04"
         d="M 436.37801,142.875 A 182.37802,119.68379 0 0 1 253.99999,262.55879 182.37802,119.68379 0 0 1 71.621984,142.875 182.37802,119.68379 0 0 1 253.99999,23.191214 182.37802,119.68379 0 0 1 436.37801,142.875 Z" />
      <path
         id="path31"
         style="font-variation-settings:'wght' 700;display:inline;fill:none;fill-opacity:0.5;stroke:#adad9c;stroke-width:1.09851248;stroke-linejoin:round;stroke-dasharray:none;stroke-opacity:0.02"
         d="M 469.03967,142.875 A 215.03967,141.11768 0 0 1 253.99999,283.99268 215.03967,141.11768 0 0 1 38.960329,142.875 215.03967,141.11768 0 0 1 253.99999,1.7573261 215.03967,141.11768 0 0 1 469.03967,142.875 Z" />
    </g>
  </g>
  <g
     inkscape:label="Layer 1"
     inkscape:groupmode="layer"
     id="layer1"
     style="display:inline">
    <text
       xml:space="preserve"
       transform="matrix(0.85482513,0,0,0.85482513,-113.78703,123.80752)"
       id="text2"
       style="font-style:normal;font-variant:normal;font-weight:normal;font-stretch:normal;font-size:96px;line-height:0.9;font-family:'Overused Grotesk';-inkscape-font-specification:'Overused Grotesk, @wght=700';font-variant-ligatures:discretionary-ligatures;font-variant-caps:normal;font-variant-numeric:normal;font-variant-east-asian:normal;font-variation-settings:'wght' 700;text-align:start;writing-mode:lr-tb;direction:ltr;white-space:pre;shape-inside:url(#rect2);display:inline;fill:#adad9e;fill-opacity:1;stroke:#000000;stroke-width:0;stroke-linejoin:round"><tspan
         x="218.56836"
         y="154.00838"
         id="tspan3">GROTESK</tspan></text>
    <text
       xml:space="preserve"
       transform="matrix(0.85482513,0,0,0.85482513,-138.09828,-47.543802)"
       id="text1"
       style="font-style:normal;font-variant:normal;font-weight:normal;font-stretch:normal;font-size:96px;line-height:0.9;font-family:'Overused Grotesk';-inkscape-font-specification:'Overused Grotesk, @wght=700';font-variant-ligatures:discretionary-ligatures;font-variant-caps:normal;font-variant-numeric:normal;font-variant-east-asian:normal;font-variation-settings:'wght' 700;text-align:start;writing-mode:lr-tb;direction:ltr;white-space:pre;shape-inside:url(#rect1);display:inline;fill:#adad9e;fill-opacity:1;stroke:#000000;stroke-width:0;stroke-linejoin:round"><tspan
         x="218.56836"
         y="154.00838"
         id="tspan4">OVERUSED</tspan></text>
  </g>
  <g
     inkscape:groupmode="layer"
     id="layer2"
     inkscape:label="Layer 2"
     style="display:inline">
    <circle
       style="display:inline;fill:none;fill-opacity:0.419608;stroke:#c8ff65;stroke-width:10.5833;stroke-linejoin:round;stroke-dasharray:none;stroke-opacity:1"
       id="path3"
       cx="284.30072"
       cy="64.049706"
       r="65.362312"
       transform="rotate(16.661634)" />
    <path
       style="fill:none;fill-opacity:0.419608;stroke:#c8ff65;stroke-width:10.5833;stroke-linejoin:round;stroke-dasharray:none;stroke-opacity:1"
       d="M 273.03469,79.71112 235.39695,205.47014"
       id="path5" />
    <path
       style="fill:none;fill-opacity:0.419608;stroke:#c8ff65;stroke-width:9.78958;stroke-linejoin:round;stroke-dasharray:none;stroke-opacity:1"
       d="M 314.7447,123.5676 C 284.34386,106.69163 248.3557,96.044406 212.29062,94.363987"
       id="path6"
       sodipodi:nodetypes="cc" />
    <path
       style="fill:none;fill-opacity:0.419608;stroke:#c8ff65;stroke-width:9.78958;stroke-linejoin:round;stroke-dasharray:none;stroke-opacity:1"
       d="M 320.61003,151.07274 C 280.65909,135.90184 238.8401,123.2217 194.85101,113.435"
       id="path8"
       sodipodi:nodetypes="cc" />
    <path
       id="circle10"
       style="display:inline;fill:none;fill-opacity:0.419608;stroke:#c8ff65;stroke-width:10.5833;stroke-linejoin:round;stroke-dasharray:none;stroke-opacity:1"
       d="m 285.27562,152.23531 a 32.64628,65.463893 16.661634 0 1 -50.04536,53.35507 32.64628,65.463893 16.661634 0 1 -12.50587,-72.07569 32.64628,65.463893 16.661634 0 1 50.04536,-53.355062 32.64628,65.463893 16.661634 0 1 12.50587,72.075682 z" />
    <path
       style="fill:none;fill-opacity:0.419608;stroke:#c8ff65;stroke-width:9.78958;stroke-linejoin:round;stroke-dasharray:none;stroke-opacity:1"
       d="m 193.89151,162.85461 c 30.40084,16.87597 66.389,27.5232 102.45408,29.20362"
       id="path11"
       sodipodi:nodetypes="cc" />
    <path
       style="fill:none;fill-opacity:0.419608;stroke:#c8ff65;stroke-width:9.78958;stroke-linejoin:round;stroke-dasharray:none;stroke-opacity:1"
       d="m 188.02618,136.40781 c 39.95094,15.1709 81.76993,27.85104 125.75902,37.63774"
       id="path12"
       sodipodi:nodetypes="cc" />
  </g>
</svg>
